<?xml version="1.0" encoding="UTF-8"?>
<svg width="88px" height="50px" viewBox="0 0 88 50" version="1.1" xmlns="http://www.w3.org/2000/svg" xmlns:xlink="http://www.w3.org/1999/xlink">
    <!-- Generator: sketchtool 52.5 (67469) - http://www.bohemiancoding.com/sketch -->
    <title>F2BEBC0A-C079-4B84-A0B9-225D3A5FA86E</title>
    <desc>Created with sketchtool.</desc>
    <g id="HOMEPAGE" stroke="none" stroke-width="1" fill="none" fill-rule="evenodd">
        <g id="Homepage" transform="translate(-639.000000, -51.000000)">
            <g id="Header" transform="translate(0.000000, 40.000000)">
                <g id="icons/logoNAU" transform="translate(639.000000, 11.000000)">
                    <g id="Group-15">
                        <path d="M0,13.8179784 L6.52537632,13.8179784 L6.52537632,16.2235436 C8.00346407,15.0964107 9.34267423,14.3089877 10.5467476,13.8674599 C11.741469,13.4226017 12.971728,13.2075472 14.2300431,13.2075472 C16.8051236,13.2075472 18.9963033,14.0154288 20.7918924,15.642611 C22.3027122,17.0195307 23.0588235,19.0592178 23.0588235,21.762624 L23.0588235,37.2641509 L16.5390584,37.2641509 L16.5390584,27.0014844 C16.5390584,24.2010183 16.3997132,22.3440323 16.1252313,21.4214866 C15.8428001,20.5022715 15.3616383,19.8071506 14.6761348,19.3228023 C13.9896961,18.8432117 13.1452081,18.6038923 12.1323837,18.6038923 C10.8212296,18.6038923 9.70085683,19.0025995 8.75957539,19.801917 C7.82063195,20.5955252 7.17066613,21.6979173 6.80874271,23.1029082 C6.62216979,23.8365675 6.52537632,25.4214049 6.52537632,27.8588477 L6.52537632,37.2641509 L0,37.2641509 L0,13.8179784 Z" id="Fill-1" fill="#00833E"></path>
                        <path d="M43.5891765,13.8132075 L50.1548235,13.8132075 L50.1548235,37.0580189 L43.5891765,37.0580189 L43.5891765,34.6023585 C42.3049412,35.6919811 41.0225882,36.4759434 39.7298824,36.9495283 C38.4442353,37.4278302 37.0442353,37.6712264 35.5355294,37.6712264 C32.152,37.6712264 29.2268235,36.5014151 26.7632941,34.1745283 C24.2922353,31.840566 23.0588235,28.9419811 23.0588235,25.4792453 C23.0588235,21.8900943 24.2541176,18.9457547 26.6362353,16.6504717 C29.0291765,14.3504717 31.9317647,13.2075472 35.3416471,13.2075472 C36.9129412,13.2075472 38.3830588,13.4636792 39.7647059,13.9924528 C41.1411765,14.5207547 42.4202353,15.3066038 43.5891765,16.3561321 L43.5891765,13.8132075 Z M36.7331765,18.5580189 C34.7195294,18.5580189 33.0367059,19.1995283 31.6992941,20.4731132 C30.3651765,21.7584906 29.6997647,23.3962264 29.6997647,25.3943396 C29.6997647,27.409434 30.3788235,29.0641509 31.7364706,30.3650943 C33.0950588,31.6665094 34.7651765,32.3165094 36.7581176,32.3165094 C38.8108235,32.3165094 40.5096471,31.6759434 41.8658824,30.3962264 C43.2169412,29.1216981 43.8941176,27.445283 43.8941176,25.3688679 C43.8941176,23.3443396 43.2169412,21.7042453 41.8658824,20.4433962 C40.5096471,19.1867925 38.8037647,18.5580189 36.7331765,18.5580189 Z" id="Fill-4" fill="#00833E"></path>
                        <path d="M73.145943,34.4743893 C72.4589533,35.6560028 71.7771824,37.809734 69.9600756,37.7338984 C68.9267443,37.6879231 68.3422337,37.016778 68.2549367,36.119074 C68.1823473,35.3848906 68.3327449,34.2544661 68.3540948,33.6074935 L69.3371353,14.0736635 C69.4310745,11.1738995 69.2507872,7.72337949 70.6631963,5.29095245 C72.3640652,2.41441314 75.7411321,0.19574771 79.8924858,0.499564104 C83.5546914,0.771150366 86.6257443,2.79738295 87.3990822,6.06257974 C88.1534424,9.33299022 85.4600442,13.8987676 83.7643941,16.7388111 L73.145943,34.4743893 Z" id="Fill-6" fill="#C0D01B"></path>
                        <path d="M49.8823529,13.6792453 L56.4021083,13.6792453 L56.4021083,25.0205078 C56.4021083,27.2278804 56.5779514,28.7612933 56.9212195,29.6183684 C57.2635522,30.4782972 57.8219475,31.1446469 58.5851811,31.6236006 C59.3507532,32.0944687 60.2954419,32.3365615 61.4108294,32.3365615 C62.5280875,32.3365615 63.4779206,32.1011274 64.258458,31.6340643 C65.0427367,31.1617694 65.617968,30.4730653 65.9977142,29.5660497 C66.2759764,28.8868581 66.4162767,27.4390576 66.4162767,25.216465 L66.4162767,13.6792453 L72.9411765,13.6792453 L72.9411765,23.6183672 C72.9411765,27.7139685 72.5777987,30.5130177 71.8543167,32.0226494 C70.9708925,33.8647425 69.6660996,35.2754443 67.9483561,36.2599867 C66.2278067,37.242151 64.0372512,37.7358491 61.3823016,37.7358491 C58.5061453,37.7358491 56.1841752,37.1574899 54.4032966,36.0083814 C52.6242887,34.8602243 51.3756159,33.2568946 50.6497956,31.2045755 C50.1391025,29.7810319 49.8823529,27.1955379 49.8823529,23.4438131 L49.8823529,13.6792453 Z" id="Fill-9" fill="#00833E"></path>
                        <path d="M61.6470588,43.8620879 C61.6470588,46.9942645 59.0118994,49.5283019 55.7665761,49.5283019 C52.5165773,49.5283019 49.8823529,46.9942645 49.8823529,43.8620879 C49.8823529,40.7415845 52.5165773,38.2075472 55.7665761,38.2075472 C59.0118994,38.2075472 61.6470588,40.7415845 61.6470588,43.8620879" id="Fill-11" fill="#C0D01B"></path>
                        <path d="M73.4117647,43.8620879 C73.4117647,46.9942645 70.7759282,49.5283019 67.5298794,49.5283019 C64.2796222,49.5283019 61.6470588,46.9942645 61.6470588,43.8620879 C61.6470588,40.7415845 64.2796222,38.2075472 67.5298794,38.2075472 C70.7759282,38.2075472 73.4117647,40.7415845 73.4117647,43.8620879" id="Fill-13" fill="#C0D01B"></path>
                    </g>
                </g>
            </g>
        </g>
    </g>
</svg>