<svg xmlns="http://www.w3.org/2000/svg" width="20" height="20" viewBox="0 0 20 20" fill="none">
<path d="M3.06094 4.32939C3.3897 4.32939 3.64801 4.07265 3.64801 3.7459V1.17854H6.18414C6.5129 1.17854 6.77121 0.921803 6.77121 0.595049C6.77121 0.268294 6.5129 0.0115585 6.18414 0.0115585H2.47387V3.7459C2.47387 4.06098 2.73218 4.32939 3.06094 4.32939Z" fill="#000000"/>
<path d="M13.6869 1.16698H16.2231V3.73434C16.2231 4.06109 16.4814 4.31783 16.8102 4.31783C17.1389 4.31783 17.3972 4.06109 17.3972 3.73434V0H13.6869C13.3582 0 13.0999 0.256736 13.0999 0.58349C13.0999 0.910245 13.3582 1.16698 13.6869 1.16698Z" fill="#000000"/>
<path d="M6.18414 18.3801H3.64801V15.8128C3.64801 15.486 3.3897 15.2293 3.06094 15.2293C2.73218 15.2293 2.47387 15.486 2.47387 15.8128V19.5471H6.18414C6.5129 19.5471 6.77121 19.2904 6.77121 18.9636C6.77121 18.6369 6.5129 18.3801 6.18414 18.3801Z" fill="#000000"/>
<path d="M16.8102 15.2293C16.4814 15.2293 16.2231 15.486 16.2231 15.8128V18.3801H13.6869C13.3582 18.3801 13.0999 18.6369 13.0999 18.9636C13.0999 19.2904 13.3582 19.5471 13.6869 19.5471H17.3972V15.8128C17.3972 15.486 17.1272 15.2293 16.8102 15.2293Z" fill="#000000"/>
<path d="M9.9531 18.135C9.4717 18.135 9.08424 18.5201 9.08424 18.9986C9.08424 19.477 9.4717 19.8621 9.9531 19.8621C10.4345 19.8621 10.822 19.477 10.822 18.9986C10.822 18.5201 10.4345 18.135 9.9531 18.135Z" fill="#000000"/>
<path d="M4.41335 13H3.24858L5.86577 5.72727H7.13352L9.75071 13H8.58594L6.52983 7.0483H6.47301L4.41335 13ZM4.60866 10.152H8.38707V11.0753H4.60866V10.152ZM10.801 13V5.72727H13.3933C13.9567 5.72727 14.4243 5.82434 14.796 6.01847C15.17 6.21259 15.4494 6.4813 15.6341 6.82457C15.8187 7.16548 15.911 7.55966 15.911 8.0071C15.911 8.45218 15.8175 8.84399 15.6305 9.18253C15.4458 9.5187 15.1665 9.7803 14.7924 9.96733C14.4208 10.1544 13.9532 10.2479 13.3897 10.2479H11.426V9.30327H13.2903C13.6454 9.30327 13.9342 9.25237 14.1568 9.15057C14.3817 9.04877 14.5462 8.9008 14.6504 8.70668C14.7546 8.51255 14.8066 8.27936 14.8066 8.0071C14.8066 7.73248 14.7534 7.49455 14.6468 7.29332C14.5427 7.09209 14.3781 6.93821 14.1532 6.83168C13.9307 6.72277 13.6383 6.66832 13.2761 6.66832H11.8983V13H10.801ZM14.3912 9.71875L16.188 13H14.938L13.1767 9.71875H14.3912Z" fill="#000000"/>
</svg>