<?xml version="1.0" encoding="utf-8"?>
<!-- Generator: Adobe Illustrator 21.1.0, SVG Export Plug-In . SVG Version: 6.00 Build 0)  -->
<svg version="1.1" id="Livello_1" xmlns="http://www.w3.org/2000/svg" xmlns:xlink="http://www.w3.org/1999/xlink" x="0px" y="0px"
	 viewBox="0 0 32 32" enable-background="new 0 0 32 32" xml:space="preserve">
<path d="M26,16c0-1.1-0.9-2-2-2s-2,0.9-2,2s0.9,2,2,2S26,17.1,26,16z M18,16c0-1.1-0.9-2-2-2s-2,0.9-2,2s0.9,2,2,2S18,17.1,18,16z
	 M10,16c0-1.1-0.9-2-2-2s-2,0.9-2,2s0.9,2,2,2S10,17.1,10,16z"/>
</svg>
