<svg version="1.2" xmlns="http://www.w3.org/2000/svg" viewBox="0 0 806 231" width="806" height="231">
	<title>logo_woodeex-ai</title>
	<style>
		.s0 { fill: #ffffff } 
		.s1 { fill: #141818 } 
		.s2 { fill: #4ac4a5 } 
	</style>
	<g id="Calque 1">
		<path id="&lt;Compound Path&gt;" fill-rule="evenodd" class="s0" d="m-691.8 712.3h-9.1v-1.7h20v1.7h-9v23.5h-1.9zm24.1 4.6q3.5 0 5.5 2.1q2.1 2 2.1 5.9v11h-1.8v-10.9q0-3.1-1.6-4.8q-1.6-1.6-4.5-1.6q-3.3 0-5.2 1.9q-1.9 2-1.9 5.4v10h-1.8v-26.7h1.8v11.8q1-1.9 2.9-3q1.9-1.1 4.5-1.1zm30.9 10h-16.1q0 2.2 1.1 3.9q1 1.7 2.8 2.7q1.8 0.9 4 0.9q1.9 0 3.4-0.7q1.6-0.6 2.6-1.9l1.1 1.2q-1.3 1.4-3.1 2.2q-1.9 0.8-4 0.8q-2.8 0-5-1.2q-2.2-1.2-3.5-3.4q-1.2-2.1-1.2-4.9q0-2.8 1.2-4.9q1.1-2.2 3.2-3.4q2-1.3 4.6-1.3q2.6 0 4.6 1.2q2 1.3 3.2 3.4q1.2 2.2 1.2 4.9zm-9-8.4q-1.9 0-3.5 0.9q-1.6 0.9-2.6 2.5q-0.9 1.6-1.1 3.6h14.4q-0.1-2-1-3.6q-1-1.6-2.6-2.5q-1.6-0.9-3.6-0.9zm29.5-7.9q-3.5 0-3.5 3.7v2.8h6v1.5h-6v17.3h-1.8v-17.3h-3.5v-1.5h3.5v-2.9q0-2.4 1.4-3.8q1.3-1.4 3.8-1.4q1.1 0 2.1 0.3q1 0.3 1.6 0.9l-0.7 1.4q-1.2-1-2.9-1zm9.9 1.9q-0.6 0-1-0.4q-0.5-0.4-0.5-1q0-0.6 0.5-1.1q0.4-0.4 1-0.4q0.6 0 1.1 0.4q0.4 0.4 0.4 1q0 0.6-0.4 1.1q-0.5 0.4-1.1 0.4zm-0.9 4.6h1.8v18.8h-1.8zm11.1 4.1q0.9-2.1 2.7-3.2q1.9-1.1 4.5-1.1v1.8h-0.4q-3.2 0-4.9 1.9q-1.8 2-1.8 5.5v9.8h-1.8v-18.8h1.7zm17.1 14.8q-2.3 0-4.3-0.7q-2.1-0.7-3.2-1.7l0.8-1.4q1.2 0.9 3 1.6q1.8 0.6 3.8 0.6q2.8 0 4.2-0.9q1.3-0.9 1.3-2.6q0-1.2-0.7-1.9q-0.8-0.7-1.8-1q-1.1-0.3-3-0.7q-2.3-0.4-3.6-0.8q-1.4-0.5-2.4-1.5q-0.9-1.1-0.9-2.9q0-2.3 1.8-3.7q1.9-1.5 5.3-1.5q1.8 0 3.6 0.5q1.7 0.5 2.8 1.4l-0.8 1.4q-1.1-0.8-2.6-1.3q-1.5-0.4-3-0.4q-2.7 0-4 1q-1.3 1-1.3 2.5q0 1.3 0.7 2q0.8 0.7 1.9 1q1.1 0.4 3 0.8q2.2 0.4 3.6 0.8q1.3 0.5 2.3 1.5q0.9 1 0.9 2.8q0 2.3-1.9 3.7q-2 1.4-5.5 1.4zm21.8-1.3q-0.7 0.6-1.7 1q-1.1 0.3-2.2 0.3q-2.4 0-3.8-1.3q-1.3-1.4-1.3-3.8v-12.3h-3.4v-1.5h3.4v-4.1h1.8v4.1h6v1.5h-6v12.1q0 1.9 0.9 2.8q0.9 1 2.6 1q1.8 0 2.9-1.1zm37.7-17.7q3.5 0 5.5 2q2 2.1 2 5.9v11h-1.8v-10.8q0-3.2-1.6-4.9q-1.5-1.6-4.3-1.6q-3.2 0-5 2q-1.9 1.9-1.9 5.3v10h-1.8v-10.8q0-3.2-1.5-4.9q-1.6-1.6-4.3-1.6q-3.2 0-5.1 2q-1.8 1.9-1.8 5.3v10h-1.8v-18.8h1.7v4q0.9-1.9 2.8-3q1.9-1.1 4.4-1.1q2.6 0 4.3 1.1q1.8 1.2 2.6 3.4q0.9-2.1 2.9-3.3q2-1.2 4.7-1.2zm21.2 0q3.5 0 5.4 1.7q1.9 1.8 1.9 5.3v11.9h-1.8v-3.3q-0.9 1.6-2.6 2.5q-1.7 0.9-4.1 0.9q-3.2 0-5-1.4q-1.8-1.5-1.8-3.9q0-2.4 1.7-3.8q1.6-1.5 5.3-1.5h6.5v-1.5q0-2.6-1.5-4q-1.4-1.3-4.1-1.3q-1.9 0-3.6 0.6q-1.7 0.6-2.9 1.7l-0.9-1.3q1.4-1.2 3.4-1.9q2-0.7 4.1-0.7zm-1 17.6q2.4 0 4-1.1q1.6-1.1 2.5-3.1v-3.6h-6.5q-2.7 0-4 1q-1.2 1-1.2 2.8q0 1.8 1.4 2.9q1.3 1.1 3.8 1.1zm17.4-13.4q0.9-2 2.7-3.1q1.8-1.1 4.5-1.1v1.7h-0.5q-3.1 0-4.9 2q-1.7 1.9-1.7 5.4v9.8h-1.8v-18.8h1.7zm18.8 4.7l-4.9 4.4v5.6h-1.8v-26.7h1.8v18.9l12.1-11h2.3l-8.1 7.6l8.9 11.2h-2.3zm29.6 1.1h-16.2q0.1 2.2 1.2 3.9q1 1.7 2.8 2.6q1.8 1 4 1q1.8 0 3.4-0.7q1.6-0.7 2.6-2l1.1 1.2q-1.3 1.5-3.1 2.3q-1.9 0.8-4 0.8q-2.8 0-5-1.2q-2.2-1.3-3.5-3.4q-1.2-2.2-1.2-5q0-2.7 1.2-4.9q1.1-2.1 3.2-3.4q2-1.2 4.6-1.2q2.5 0 4.6 1.2q2 1.2 3.2 3.4q1.1 2.1 1.1 4.9zm-8.9-8.4q-2 0-3.5 0.9q-1.6 0.9-2.6 2.5q-0.9 1.6-1.1 3.6h14.4q-0.1-2-1.1-3.6q-0.9-1.6-2.5-2.5q-1.6-0.9-3.6-0.9zm23.9 16.2q-0.7 0.6-1.7 0.9q-1 0.4-2.2 0.4q-2.4 0-3.7-1.4q-1.4-1.3-1.4-3.7v-12.3h-3.4v-1.6h3.4v-4.1h1.8v4.1h6v1.6h-6v12.1q0 1.8 0.9 2.8q0.9 0.9 2.6 0.9q1.8 0 2.9-1zm14.5-17.8q2.6 0 4.7 1.3q2.1 1.2 3.4 3.4q1.2 2.1 1.2 4.9q0 2.8-1.2 4.9q-1.3 2.2-3.4 3.4q-2.1 1.2-4.7 1.2q-2.5 0-4.5-1.1q-2-1.2-3.2-3.3v11.3h-1.8v-25.8h1.8v4.4q1.1-2.1 3.1-3.4q2-1.2 4.6-1.2zm-0.1 17.5q2.1 0 3.8-1q1.8-1 2.8-2.8q1-1.8 1-4.1q0-2.3-1-4.1q-1-1.8-2.8-2.8q-1.7-1-3.8-1q-2.2 0-3.9 1q-1.7 1-2.7 2.8q-1 1.8-1 4.1q0 2.3 1 4.1q1 1.8 2.7 2.8q1.7 1 3.9 1zm14.9-25.2h1.8v26.7h-1.8zm15.8 7.8q3.5 0 5.3 1.7q1.9 1.8 1.9 5.3v11.9h-1.7v-3.4q-0.9 1.7-2.7 2.6q-1.7 0.9-4.1 0.9q-3.1 0-4.9-1.4q-1.9-1.5-1.9-3.9q0-2.4 1.7-3.8q1.7-1.5 5.4-1.5h6.4v-1.5q0-2.6-1.4-4q-1.4-1.4-4.2-1.4q-1.8 0-3.6 0.7q-1.7 0.6-2.9 1.7l-0.9-1.3q1.4-1.2 3.4-1.9q2-0.7 4.2-0.7zm-1 17.6q2.3 0 3.9-1.1q1.7-1.1 2.5-3.2v-3.5h-6.4q-2.8 0-4 1q-1.3 1-1.3 2.8q0 1.8 1.4 2.9q1.4 1.1 3.9 1.1zm23.1 1.4q-2.7 0-4.9-1.2q-2.1-1.2-3.4-3.4q-1.2-2.2-1.2-4.9q0-2.8 1.2-5q1.3-2.1 3.4-3.3q2.2-1.2 4.9-1.2q2.3 0 4.1 0.8q1.9 0.9 3 2.6l-1.3 1q-1-1.4-2.5-2.1q-1.5-0.7-3.3-0.7q-2.2 0-3.9 1q-1.8 1-2.8 2.8q-1 1.8-1 4.1q0 2.3 1 4.1q1 1.8 2.8 2.8q1.7 1 3.9 1q1.8 0 3.3-0.7q1.5-0.7 2.5-2.1l1.3 1q-1.1 1.7-3 2.6q-1.8 0.8-4.1 0.8zm28.1-9.1h-16.2q0.1 2.2 1.1 3.9q1.1 1.7 2.9 2.7q1.7 0.9 4 0.9q1.8 0 3.4-0.7q1.5-0.6 2.6-1.9l1 1.2q-1.2 1.5-3 2.2q-1.9 0.8-4.1 0.8q-2.8 0-5-1.2q-2.2-1.2-3.4-3.4q-1.2-2.1-1.2-4.9q0-2.7 1.1-4.9q1.2-2.2 3.3-3.4q2-1.2 4.6-1.2q2.5 0 4.5 1.2q2.1 1.2 3.3 3.3q1.1 2.2 1.1 4.9zm-8.9-8.4q-2 0-3.6 0.9q-1.6 0.9-2.5 2.5q-1 1.6-1.1 3.6h14.4q-0.1-2-1.1-3.6q-1-1.6-2.5-2.5q-1.6-0.9-3.6-0.9zm33.1 16.2q-0.7 0.6-1.7 1q-1 0.3-2.1 0.3q-2.5 0-3.8-1.3q-1.3-1.4-1.3-3.8v-12.3h-3.5v-1.5h3.5v-4.1h1.8v4.1h5.9v1.5h-5.9v12.1q0 1.9 0.8 2.8q0.9 1 2.6 1q1.8 0 3-1.1zm14.1-17.7q3.6 0 5.6 2q2.1 2.1 2.1 5.9v11h-1.8v-10.8q0-3.2-1.6-4.8q-1.6-1.7-4.5-1.7q-3.3 0-5.2 2q-1.9 2-1.9 5.3v10h-1.8v-26.7h1.8v11.9q0.9-2 2.8-3q2-1.1 4.5-1.1zm21.4 0q3.5 0 5.4 1.8q1.9 1.8 1.9 5.2v11.9h-1.8v-3.3q-0.9 1.6-2.6 2.6q-1.7 0.9-4.1 0.9q-3.2 0-5-1.5q-1.8-1.5-1.8-3.9q0-2.3 1.7-3.8q1.6-1.4 5.3-1.4h6.5v-1.6q0-2.6-1.5-4q-1.4-1.3-4.1-1.3q-1.9 0-3.6 0.6q-1.7 0.7-2.9 1.8l-0.9-1.3q1.4-1.3 3.4-2q2-0.7 4.1-0.7zm-1 17.6q2.4 0 4-1.1q1.6-1.1 2.5-3.1v-3.5h-6.4q-2.8 0-4.1 1q-1.2 1-1.2 2.7q0 1.9 1.4 2.9q1.3 1.1 3.8 1.1zm25 0.1q-0.7 0.7-1.7 1q-1 0.4-2.1 0.4q-2.5 0-3.8-1.4q-1.4-1.3-1.4-3.7v-12.3h-3.4v-1.6h3.4v-4.1h1.8v4.1h6v1.6h-6v12.1q0 1.8 0.9 2.8q0.9 0.9 2.6 0.9q1.8 0 2.9-1zm21.8 1.3q-2.8 0-4.9-1.2q-2.2-1.2-3.4-3.4q-1.2-2.2-1.2-4.9q0-2.8 1.2-5q1.2-2.2 3.4-3.4q2.1-1.2 4.9-1.2q2.2 0 4.1 0.9q1.8 0.9 3 2.6l-1.3 1q-1.1-1.4-2.6-2.1q-1.4-0.7-3.2-0.7q-2.2 0-4 0.9q-1.7 1-2.7 2.8q-1 1.8-1 4.2q0 2.3 1 4.1q1 1.8 2.7 2.8q1.8 1 4 1q1.8 0 3.2-0.7q1.5-0.7 2.6-2.1l1.3 1q-1.2 1.6-3 2.5q-1.9 0.9-4.1 0.9zm19.5 0q-2.7 0-4.8-1.2q-2.1-1.2-3.4-3.4q-1.2-2.2-1.2-4.9q0-2.8 1.2-4.9q1.3-2.2 3.4-3.4q2.1-1.3 4.8-1.3q2.7 0 4.8 1.3q2.1 1.2 3.4 3.4q1.2 2.1 1.2 4.9q0 2.7-1.2 4.9q-1.3 2.2-3.4 3.4q-2.1 1.2-4.8 1.2zm0-1.6q2.2 0 3.9-1q1.7-1 2.7-2.8q1-1.8 1-4.1q0-2.3-1-4.1q-1-1.8-2.7-2.8q-1.7-1-3.9-1q-2.2 0-3.9 1q-1.7 1-2.7 2.8q-1 1.8-1 4.1q0 2.3 1 4.1q1 1.8 2.7 2.8q1.7 1 3.9 1zm24.2-17.5q3.5 0 5.5 2.1q2.1 2 2.1 5.9v11h-1.8v-10.9q0-3.1-1.6-4.8q-1.6-1.6-4.5-1.6q-3.3 0-5.2 1.9q-1.9 2-1.9 5.4v10h-1.8v-18.8h1.7v4q1-1.9 2.9-3.1q1.9-1.1 4.6-1.1zm24.2 0q3.5 0 5.6 2.1q2 2 2 5.9v11h-1.8v-10.9q0-3.1-1.6-4.8q-1.6-1.6-4.5-1.6q-3.3 0-5.2 1.9q-1.9 2-1.9 5.4v10h-1.8v-18.8h1.7v4q1-1.9 2.9-3.1q2-1.1 4.6-1.1zm30.9 10h-16.1q0.1 2.2 1.1 3.9q1 1.7 2.8 2.7q1.8 0.9 4 0.9q1.9 0 3.4-0.7q1.6-0.6 2.6-1.9l1.1 1.2q-1.2 1.4-3.1 2.2q-1.8 0.8-4 0.8q-2.8 0-5-1.2q-2.2-1.2-3.4-3.4q-1.3-2.2-1.3-4.9q0-2.8 1.2-4.9q1.2-2.2 3.2-3.4q2.1-1.3 4.6-1.3q2.6 0 4.6 1.2q2 1.2 3.2 3.4q1.2 2.2 1.2 4.9zm-8.9-8.4q-2 0-3.6 0.9q-1.6 0.9-2.5 2.5q-1 1.6-1.1 3.6h14.4q-0.2-2-1.1-3.6q-1-1.6-2.6-2.5q-1.6-0.9-3.5-0.9zm21.9 17.5q-2.7 0-4.8-1.2q-2.2-1.2-3.4-3.4q-1.3-2.2-1.3-4.9q0-2.8 1.3-5q1.2-2.2 3.4-3.4q2.1-1.2 4.8-1.2q2.3 0 4.2 0.9q1.8 0.9 3 2.6l-1.4 1q-1-1.4-2.5-2.2q-1.5-0.7-3.3-0.7q-2.1 0-3.9 1q-1.7 1-2.7 2.8q-1 1.8-1 4.2q0 2.3 1 4.1q1 1.8 2.7 2.8q1.8 1 3.9 1q1.8 0 3.3-0.7q1.5-0.7 2.5-2.1l1.4 1q-1.2 1.6-3 2.5q-1.9 0.9-4.2 0.9zm22.1-1.3q-0.7 0.6-1.7 1q-1 0.3-2.1 0.3q-2.5 0-3.8-1.3q-1.4-1.4-1.4-3.8v-12.3h-3.4v-1.5h3.4v-4.1h1.8v4.1h6v1.5h-6v12.1q0 1.9 0.9 2.8q0.9 1 2.6 1q1.8 0 3-1.1zm9.7 1.3q-2.3 0-4.3-0.6q-2.1-0.7-3.2-1.8l0.8-1.4q1.2 1 3 1.6q1.8 0.7 3.8 0.7q2.8 0 4.2-1q1.3-0.9 1.3-2.6q0-1.2-0.7-1.8q-0.7-0.7-1.8-1q-1.1-0.4-3-0.7q-2.2-0.4-3.6-0.9q-1.4-0.5-2.4-1.5q-0.9-1-0.9-2.9q0-2.2 1.8-3.7q1.9-1.4 5.3-1.4q1.8 0 3.6 0.5q1.7 0.5 2.8 1.3l-0.8 1.4q-1.1-0.8-2.6-1.2q-1.5-0.4-3-0.4q-2.7 0-4 0.9q-1.3 1-1.3 2.6q0 1.2 0.7 1.9q0.8 0.7 1.9 1.1q1.1 0.3 3.1 0.7q2.2 0.4 3.5 0.9q1.4 0.4 2.3 1.4q0.9 1 0.9 2.8q0 2.3-1.9 3.7q-2 1.4-5.5 1.4zm36.8-18.9l-9.6 21.4q-1.1 2.4-2.5 3.5q-1.5 1-3.4 1q-1.3 0-2.4-0.4q-1.2-0.4-2-1.3l0.9-1.3q1.5 1.4 3.5 1.4q1.4 0 2.4-0.7q0.9-0.8 1.8-2.6l1-2.3l-8.5-18.7h1.9l7.5 16.8l7.6-16.8zm10.7 18.9q-2.7 0-4.8-1.2q-2.2-1.2-3.4-3.4q-1.2-2.2-1.2-4.9q0-2.7 1.2-4.9q1.2-2.2 3.4-3.4q2.1-1.2 4.8-1.2q2.7 0 4.8 1.2q2.1 1.2 3.4 3.4q1.2 2.2 1.2 4.9q0 2.7-1.2 4.9q-1.3 2.2-3.4 3.4q-2.1 1.2-4.8 1.2zm0-1.6q2.2 0 3.9-1q1.7-1 2.7-2.8q1-1.8 1-4.1q0-2.3-1-4.1q-1-1.8-2.7-2.8q-1.7-1-3.9-1q-2.2 0-3.9 1q-1.7 1-2.7 2.8q-1 1.8-1 4.1q0 2.3 1 4.1q1 1.8 2.7 2.8q1.7 1 3.9 1zm31.4-17.3v18.8h-1.7v-4q-0.9 2-2.8 3q-1.8 1.1-4.3 1.1q-3.7 0-5.8-2q-2-2.1-2-5.9v-11h1.8v10.8q0 3.2 1.6 4.9q1.6 1.6 4.5 1.6q3.2 0 5.1-2q1.8-1.9 1.8-5.3v-10zm26.2 17.6q-0.7 0.7-1.7 1q-1 0.3-2.1 0.3q-2.5 0-3.8-1.3q-1.3-1.4-1.3-3.8v-12.2h-3.5v-1.6h3.5v-4.1h1.8v4.1h5.9v1.6h-5.9v12.1q0 1.8 0.9 2.7q0.8 1 2.6 1q1.7 0 2.9-1zm11.6 1.3q-2.6 0-4.8-1.2q-2.1-1.3-3.3-3.4q-1.3-2.2-1.3-5q0-2.7 1.3-4.9q1.2-2.1 3.3-3.4q2.2-1.2 4.8-1.2q2.7 0 4.8 1.2q2.2 1.3 3.4 3.4q1.2 2.2 1.2 4.9q0 2.8-1.2 5q-1.2 2.1-3.4 3.4q-2.1 1.2-4.8 1.2zm0-1.6q2.2 0 3.9-1q1.7-1 2.7-2.8q1-1.8 1-4.2q0-2.3-1-4.1q-1-1.8-2.7-2.8q-1.7-1-3.9-1q-2.1 0-3.8 1q-1.7 1-2.7 2.8q-1 1.8-1 4.1q0 2.4 1 4.2q1 1.8 2.7 2.8q1.7 1 3.8 1zm33.6 0.3q-0.7 0.6-1.7 0.9q-1 0.4-2.2 0.4q-2.4 0-3.7-1.4q-1.4-1.3-1.4-3.7v-12.3h-3.4v-1.5h3.4v-4.2h1.8v4.2h6v1.5h-6v12.1q0 1.8 0.9 2.8q0.9 0.9 2.6 0.9q1.8 0 2.9-1zm14.2-17.8q3.5 0 5.6 2.1q2.1 2.1 2.1 5.9v11h-1.8v-10.9q0-3.1-1.6-4.8q-1.7-1.6-4.5-1.6q-3.3 0-5.3 1.9q-1.9 2-1.9 5.4v10h-1.8v-26.7h1.8v11.8q1-1.9 2.9-3q1.9-1.1 4.5-1.1zm31 10h-16.2q0.1 2.2 1.1 3.9q1.1 1.7 2.9 2.7q1.7 0.9 4 0.9q1.8 0 3.4-0.7q1.5-0.6 2.6-1.9l1 1.2q-1.2 1.4-3.1 2.2q-1.8 0.8-4 0.8q-2.8 0-5-1.2q-2.2-1.2-3.4-3.4q-1.3-2.1-1.3-4.9q0-2.7 1.2-4.9q1.2-2.2 3.2-3.4q2.1-1.3 4.6-1.3q2.6 0 4.6 1.3q2.1 1.2 3.2 3.3q1.2 2.2 1.2 4.9zm-8.9-8.4q-2 0-3.6 0.9q-1.6 0.9-2.5 2.5q-1 1.6-1.1 3.6h14.4q-0.1-2-1.1-3.6q-1-1.6-2.6-2.5q-1.5-0.9-3.5-0.9zm40.5-9.3v26.7h-1.8v-4.4q-1.1 2.1-3.1 3.3q-2 1.2-4.6 1.2q-2.6 0-4.7-1.2q-2.2-1.2-3.4-3.4q-1.2-2.1-1.2-4.9q0-2.8 1.2-5q1.2-2.1 3.4-3.4q2.1-1.2 4.7-1.2q2.5 0 4.5 1.2q2 1.2 3.2 3.3v-12.2zm-9.4 25.2q2.2 0 3.9-1q1.7-1 2.7-2.8q1-1.8 1-4.1q0-2.3-1-4.1q-1-1.8-2.7-2.8q-1.7-1-3.9-1q-2.1 0-3.8 1q-1.8 1-2.7 2.8q-1 1.8-1 4.1q0 2.3 1 4.1q0.9 1.8 2.7 2.8q1.7 1 3.8 1zm17.9-21.9q-0.6 0-1.1-0.4q-0.4-0.4-0.4-1q0-0.6 0.4-1.1q0.5-0.4 1.1-0.4q0.6 0 1 0.4q0.5 0.4 0.5 1q0 0.7-0.5 1.1q-0.4 0.4-1 0.4zm-0.9 4.6h1.8v18.8h-1.8zm15.7-0.2q3.5 0 5.4 1.8q1.8 1.8 1.8 5.3v11.9h-1.7v-3.4q-0.9 1.7-2.6 2.6q-1.7 0.9-4.1 0.9q-3.2 0-5-1.5q-1.8-1.4-1.8-3.8q0-2.4 1.7-3.8q1.6-1.5 5.3-1.5h6.4v-1.5q0-2.6-1.4-4q-1.4-1.4-4.1-1.4q-1.9 0-3.6 0.7q-1.7 0.6-2.9 1.7l-0.9-1.3q1.4-1.3 3.4-2q2-0.7 4.1-0.7zm-1 17.6q2.3 0 4-1q1.6-1.1 2.4-3.2v-3.5h-6.4q-2.7 0-4 1q-1.2 1-1.2 2.8q0 1.8 1.4 2.9q1.3 1 3.8 1zm39.1-17.6q3.5 0 5.5 2.1q2 2 2 5.9v11h-1.8v-10.9q0-3.1-1.6-4.8q-1.5-1.6-4.3-1.6q-3.2 0-5 1.9q-1.9 2-1.9 5.4v10h-1.8v-10.9q0-3.1-1.5-4.8q-1.6-1.6-4.4-1.6q-3.1 0-5 1.9q-1.8 2-1.8 5.4v10h-1.8v-18.8h1.7v4q0.9-2 2.8-3.1q1.8-1.1 4.4-1.1q2.5 0 4.3 1.2q1.8 1.1 2.6 3.4q0.9-2.1 2.9-3.3q2-1.3 4.7-1.3zm21.2 0q3.5 0 5.4 1.8q1.8 1.8 1.8 5.3v11.9h-1.7v-3.4q-0.9 1.7-2.6 2.6q-1.7 0.9-4.2 0.9q-3.1 0-4.9-1.5q-1.8-1.4-1.8-3.8q0-2.4 1.7-3.8q1.6-1.5 5.3-1.5h6.4v-1.5q0-2.6-1.4-4q-1.4-1.4-4.1-1.4q-1.9 0-3.6 0.7q-1.7 0.6-2.9 1.7l-0.9-1.3q1.4-1.3 3.4-2q1.9-0.7 4.1-0.7zm-1 17.6q2.3 0 4-1q1.6-1.1 2.4-3.2v-3.5h-6.4q-2.7 0-4 1q-1.2 1-1.2 2.8q0 1.8 1.3 2.9q1.4 1 3.9 1zm24.8-17.6q3.6 0 5.6 2.1q2.1 2 2.1 5.9v11h-1.8v-10.9q0-3.1-1.6-4.8q-1.6-1.6-4.5-1.6q-3.3 0-5.2 1.9q-1.9 2-1.9 5.4v10h-1.8v-18.8h1.7v4q1-1.9 2.9-3q1.9-1.2 4.5-1.2zm24.4 17.8q-0.7 0.6-1.7 1q-1 0.3-2.1 0.3q-2.5 0-3.8-1.3q-1.4-1.4-1.4-3.8v-12.3h-3.4v-1.5h3.4v-4.1h1.8v4.1h6v1.5h-6v12.1q0 1.9 0.9 2.8q0.9 1 2.6 1q1.8 0 3-1.1zm11.3-17.7q3.5 0 5.4 1.8q1.8 1.7 1.8 5.2v11.9h-1.7v-3.3q-0.9 1.6-2.6 2.5q-1.8 1-4.2 1q-3.1 0-4.9-1.5q-1.8-1.5-1.8-3.9q0-2.3 1.6-3.8q1.7-1.5 5.4-1.5h6.4v-1.5q0-2.6-1.4-4q-1.4-1.3-4.2-1.3q-1.8 0-3.5 0.6q-1.7 0.7-2.9 1.7l-0.9-1.3q1.4-1.2 3.4-1.9q1.9-0.7 4.1-0.7zm-1 17.6q2.3 0 4-1.1q1.6-1.1 2.4-3.1v-3.6h-6.4q-2.8 0-4 1q-1.2 1.1-1.2 2.8q0 1.9 1.3 2.9q1.4 1.1 3.9 1.1zm16.5-22.1q-0.6 0-1-0.4q-0.4-0.4-0.4-1q0-0.6 0.4-1q0.4-0.5 1-0.5q0.7 0 1.1 0.4q0.4 0.5 0.4 1.1q0 0.6-0.4 1q-0.4 0.4-1.1 0.4zm-0.9 4.6h1.8v18.8h-1.8zm11.2 4.1q0.8-2 2.7-3.1q1.8-1.1 4.4-1.1v1.7h-0.4q-3.1 0-4.9 2q-1.8 1.9-1.8 5.4v9.8h-1.8v-18.8h1.8zm27.8 5.7h-16.2q0.1 2.2 1.1 3.9q1.1 1.8 2.9 2.7q1.8 0.9 4 0.9q1.8 0 3.4-0.6q1.6-0.7 2.6-2l1 1.2q-1.2 1.5-3 2.3q-1.9 0.7-4 0.7q-2.9 0-5.1-1.2q-2.1-1.2-3.4-3.4q-1.2-2.1-1.2-4.9q0-2.7 1.1-4.9q1.2-2.2 3.3-3.4q2-1.2 4.6-1.2q2.5 0 4.6 1.2q2 1.2 3.2 3.3q1.1 2.2 1.1 4.9zm-8.9-8.4q-2 0-3.6 0.9q-1.5 0.9-2.5 2.5q-1 1.6-1.1 3.6h14.4q-0.1-2-1.1-3.6q-0.9-1.6-2.5-2.5q-1.6-0.9-3.6-0.9zm19.3 17.5q-2.3 0-4.3-0.6q-2.1-0.7-3.2-1.8l0.8-1.4q1.2 1 3 1.6q1.8 0.7 3.8 0.7q2.8 0 4.2-1q1.3-0.9 1.3-2.6q0-1.2-0.7-1.8q-0.8-0.7-1.8-1.1q-1.1-0.3-3-0.6q-2.3-0.4-3.6-0.9q-1.4-0.5-2.4-1.5q-0.9-1.1-0.9-2.9q0-2.2 1.8-3.7q1.9-1.4 5.3-1.4q1.8 0 3.6 0.5q1.7 0.5 2.8 1.3l-0.8 1.4q-1.1-0.8-2.6-1.2q-1.5-0.5-3-0.5q-2.7 0-4 1q-1.3 1-1.3 2.6q0 1.2 0.7 1.9q0.8 0.7 1.9 1.1q1.1 0.3 3 0.7q2.2 0.4 3.6 0.9q1.3 0.4 2.3 1.4q0.9 1 0.9 2.8q0 2.3-1.9 3.7q-2 1.4-5.5 1.4zm29.1 0q-2.7 0-4.9-1.2q-2.1-1.2-3.3-3.4q-1.2-2.2-1.2-4.9q0-2.7 1.2-4.9q1.2-2.2 3.3-3.4q2.2-1.2 4.9-1.2q2.6 0 4.8 1.2q2.1 1.2 3.3 3.4q1.2 2.2 1.2 4.9q0 2.7-1.2 4.9q-1.2 2.2-3.3 3.4q-2.2 1.2-4.8 1.2zm0-1.6q2.1 0 3.8-1q1.7-1 2.7-2.8q1-1.8 1-4.1q0-2.3-1-4.1q-1-1.8-2.7-2.8q-1.7-1-3.8-1q-2.2 0-3.9 1q-1.7 1-2.7 2.8q-1 1.8-1 4.1q0 2.3 1 4.1q1 1.8 2.7 2.8q1.7 1 3.9 1zm20.6-23.8q-3.5 0-3.5 3.8v2.7h6v1.6h-6v17.2h-1.8v-17.2h-3.5v-1.6h3.5v-2.9q0-2.4 1.4-3.8q1.3-1.4 3.8-1.4q1.1 0 2.1 0.3q1 0.4 1.6 1l-0.7 1.3q-1.2-1-2.9-1zm24.7 24.1q-0.7 0.7-1.7 1q-1 0.3-2.1 0.3q-2.5 0-3.8-1.3q-1.4-1.4-1.4-3.8v-12.2h-3.4v-1.6h3.4v-4.1h1.8v4.1h6v1.6h-6v12q0 1.9 0.9 2.8q0.9 1 2.6 1q1.8 0 3-1.1zm14.1-17.7q3.6 0 5.6 2.1q2.1 2 2.1 5.9v10.9h-1.8v-10.8q0-3.2-1.6-4.8q-1.6-1.7-4.5-1.7q-3.3 0-5.2 2q-1.9 2-1.9 5.3v10h-1.8v-26.7h1.8v11.9q0.9-2 2.8-3q1.9-1.1 4.5-1.1zm31 10h-16.2q0.1 2.2 1.2 3.9q1 1.7 2.8 2.6q1.8 1 4 1q1.8 0 3.4-0.7q1.6-0.7 2.6-2l1 1.2q-1.2 1.5-3 2.3q-1.9 0.8-4 0.8q-2.9 0-5-1.2q-2.2-1.3-3.5-3.4q-1.2-2.2-1.2-5q0-2.7 1.1-4.9q1.2-2.2 3.3-3.4q2-1.2 4.6-1.2q2.5 0 4.6 1.2q2 1.2 3.2 3.4q1.1 2.1 1.1 4.9zm-8.9-8.4q-2 0-3.6 0.9q-1.5 0.8-2.5 2.4q-0.9 1.6-1.1 3.7h14.4q-0.1-2.1-1.1-3.6q-0.9-1.6-2.5-2.5q-1.6-0.9-3.6-0.9zm50.7-1.5l-7.2 18.8h-1.7l-6.3-16.3l-6.4 16.3h-1.6l-7.2-18.8h1.8l6.2 16.8l6.4-16.8h1.6l6.4 16.8l6.3-16.8zm11 19q-2.7 0-4.8-1.2q-2.2-1.3-3.4-3.5q-1.2-2.1-1.2-4.9q0-2.7 1.2-4.9q1.2-2.2 3.4-3.4q2.1-1.2 4.8-1.2q2.6 0 4.8 1.2q2.1 1.2 3.4 3.4q1.2 2.2 1.2 4.9q0 2.8-1.2 4.9q-1.3 2.2-3.4 3.5q-2.2 1.2-4.8 1.2zm0-1.6q2.1 0 3.9-1.1q1.7-1 2.7-2.8q0.9-1.8 0.9-4.1q0-2.3-0.9-4.1q-1-1.8-2.7-2.8q-1.8-1-3.9-1q-2.2 0-3.9 1q-1.7 1-2.7 2.8q-1 1.8-1 4.1q0 2.3 1 4.1q1 1.8 2.7 2.8q1.7 1.1 3.9 1.1zm16.7-13.3q0.8-2 2.7-3.1q1.8-1.1 4.4-1.1v1.8l-0.4-0.1q-3.1 0-4.9 2q-1.7 1.9-1.7 5.4v9.8h-1.8v-18.8h1.7zm12.1-12h1.8v26.7h-1.8zm26.1 0v26.7h-1.7v-4.4q-1.2 2.2-3.2 3.4q-2 1.2-4.6 1.2q-2.6 0-4.7-1.2q-2.1-1.3-3.3-3.4q-1.2-2.2-1.2-5q0-2.7 1.2-4.9q1.2-2.2 3.3-3.4q2.1-1.2 4.7-1.2q2.6 0 4.6 1.2q2 1.2 3.1 3.3v-12.3zm-9.3 25.3q2.1 0 3.8-1q1.7-1.1 2.7-2.9q1-1.8 1-4.1q0-2.3-1-4.1q-1-1.8-2.7-2.8q-1.7-1-3.8-1q-2.2 0-3.9 1q-1.7 1-2.7 2.8q-1 1.8-1 4.1q0 2.3 1 4.1q1 1.8 2.7 2.9q1.7 1 3.9 1zm43.8-17.4l-7.2 18.8h-1.7l-6.3-16.3l-6.4 16.3h-1.6l-7.1-18.8h1.7l6.2 16.8l6.5-16.8h1.5l6.4 16.8l6.3-16.8zm5.1-4.5q-0.6 0-1.1-0.4q-0.4-0.5-0.4-1.1q0-0.6 0.4-1q0.5-0.4 1.1-0.4q0.6 0 1 0.4q0.5 0.4 0.5 1q0 0.6-0.5 1q-0.4 0.5-1 0.5zm-0.9 4.5h1.8v18.8h-1.8zm26.1-7.9v26.7h-1.8v-4.4q-1.1 2.2-3.1 3.4q-2 1.2-4.6 1.2q-2.6 0-4.7-1.2q-2.2-1.3-3.4-3.4q-1.2-2.2-1.2-5q0-2.7 1.2-4.9q1.2-2.2 3.4-3.4q2.1-1.2 4.7-1.2q2.5 0 4.5 1.2q2 1.2 3.2 3.3v-12.3zm-9.4 25.3q2.2 0 3.9-1.1q1.7-1 2.7-2.8q1-1.8 1-4.1q0-2.3-1-4.1q-1-1.8-2.7-2.8q-1.7-1-3.9-1q-2.1 0-3.8 1q-1.8 1-2.7 2.8q-1 1.8-1 4.1q0 2.3 1 4.1q0.9 1.8 2.7 2.8q1.7 1.1 3.8 1.1zm32.9-7.5h-16.2q0.1 2.2 1.1 3.9q1.1 1.7 2.8 2.6q1.8 1 4.1 1q1.8 0 3.4-0.7q1.5-0.7 2.6-2l1 1.2q-1.2 1.5-3.1 2.3q-1.8 0.8-4 0.8q-2.8 0-5-1.2q-2.2-1.3-3.4-3.4q-1.3-2.2-1.3-5q0-2.7 1.2-4.9q1.2-2.2 3.2-3.4q2.1-1.2 4.6-1.2q2.6 0 4.6 1.2q2.1 1.2 3.2 3.4q1.2 2.1 1.2 4.9zm-8.9-8.4q-2 0-3.6 0.9q-1.6 0.8-2.5 2.4q-1 1.6-1.1 3.7h14.4q-0.1-2.1-1.1-3.6q-1-1.6-2.6-2.5q-1.6-0.9-3.5-0.9zm33.2-1.6q2.6 0 4.7 1.2q2.2 1.2 3.4 3.4q1.2 2.2 1.2 4.9q0 2.8-1.2 5q-1.2 2.1-3.4 3.3q-2.1 1.3-4.7 1.3q-2.5 0-4.6-1.2q-2-1.2-3.1-3.4v4.4h-1.7v-26.7h1.8v12.2q1.1-2.1 3.1-3.2q2-1.2 4.5-1.2zm-0.1 17.5q2.1 0 3.9-1.1q1.7-1 2.7-2.8q1-1.8 1-4.1q0-2.3-1-4.1q-1-1.8-2.7-2.8q-1.8-1-3.9-1q-2.2 0-3.9 1q-1.7 1-2.7 2.8q-1 1.8-1 4.1q0 2.3 1 4.1q1 1.8 2.7 2.8q1.7 1.1 3.9 1.1zm22.3 1.6q-2.7 0-4.8-1.3q-2.1-1.2-3.4-3.4q-1.2-2.1-1.2-4.9q0-2.7 1.2-4.9q1.3-2.2 3.4-3.4q2.1-1.2 4.8-1.2q2.7 0 4.8 1.2q2.2 1.2 3.4 3.4q1.2 2.2 1.2 4.9q0 2.8-1.2 4.9q-1.2 2.2-3.4 3.4q-2.1 1.3-4.8 1.3zm0-1.6q2.2 0 3.9-1.1q1.7-1 2.7-2.8q1-1.8 1-4.1q0-2.3-1-4.1q-1-1.8-2.7-2.8q-1.7-1-3.9-1q-2.2 0-3.9 1q-1.7 1-2.7 2.8q-1 1.8-1 4.1q0 2.3 1 4.1q1 1.8 2.7 2.8q1.7 1.1 3.9 1.1zm31.4-17.4v18.8h-1.7v-4q-0.9 2-2.8 3.1q-1.8 1.1-4.3 1.1q-3.7 0-5.7-2.1q-2.1-2-2.1-5.9v-11h1.8v10.9q0 3.1 1.6 4.8q1.6 1.7 4.6 1.7q3.1 0 5-2q1.8-2 1.8-5.4v-10zm9.4 4.1q0.9-2 2.7-3.1q1.8-1.1 4.5-1.1v1.8l-0.5-0.1q-3.1 0-4.9 2q-1.7 1.9-1.7 5.4v9.8h-1.8v-18.8h1.7zm17.1 14.9q-2.3 0-4.4-0.7q-2-0.7-3.2-1.7l0.9-1.5q1.1 1 2.9 1.6q1.9 0.7 3.8 0.7q2.9 0 4.2-1q1.4-0.9 1.4-2.5q0-1.2-0.8-1.9q-0.7-0.7-1.8-1q-1.1-0.3-3-0.7q-2.2-0.4-3.6-0.9q-1.3-0.4-2.3-1.5q-1-1-1-2.9q0-2.2 1.9-3.7q1.8-1.4 5.2-1.4q1.8 0 3.6 0.5q1.8 0.5 2.9 1.3l-0.8 1.5q-1.2-0.9-2.7-1.3q-1.4-0.4-3-0.4q-2.6 0-3.9 0.9q-1.4 1-1.4 2.6q0 1.3 0.8 2q0.7 0.7 1.8 1q1.1 0.3 3.1 0.7q2.2 0.4 3.6 0.9q1.3 0.4 2.2 1.4q1 1.1 1 2.8q0 2.4-2 3.8q-1.9 1.4-5.4 1.4zm28.3-9.1h-16.2q0.1 2.2 1.1 3.9q1.1 1.7 2.9 2.6q1.8 0.9 4 0.9q1.8 0 3.4-0.6q1.6-0.7 2.6-2l1 1.2q-1.2 1.5-3 2.3q-1.9 0.8-4.1 0.8q-2.8 0-5-1.3q-2.2-1.2-3.4-3.3q-1.2-2.2-1.2-5q0-2.7 1.1-4.9q1.2-2.2 3.3-3.4q2-1.2 4.6-1.2q2.5 0 4.6 1.2q2 1.2 3.2 3.4q1.1 2.1 1.1 4.9zm-8.9-8.4q-2 0-3.6 0.8q-1.5 0.9-2.5 2.5q-1 1.6-1.1 3.7h14.4q-0.1-2.1-1.1-3.6q-1-1.6-2.5-2.5q-1.6-0.9-3.6-0.9zm19.3 17.5q-2.3 0-4.3-0.7q-2.1-0.7-3.2-1.7l0.8-1.5q1.2 1 3 1.6q1.8 0.7 3.8 0.7q2.8 0 4.2-1q1.3-0.9 1.3-2.5q0-1.2-0.7-1.9q-0.8-0.7-1.8-1q-1.1-0.4-3-0.7q-2.3-0.4-3.6-0.9q-1.4-0.4-2.4-1.5q-0.9-1-0.9-2.9q0-2.2 1.8-3.7q1.9-1.4 5.3-1.4q1.8 0 3.5 0.5q1.8 0.5 2.9 1.3l-0.8 1.5q-1.2-0.9-2.6-1.3q-1.5-0.4-3.1-0.4q-2.6 0-3.9 0.9q-1.3 1-1.3 2.6q0 1.3 0.7 2q0.8 0.7 1.9 1q1.1 0.3 3 0.7q2.2 0.4 3.6 0.9q1.3 0.4 2.3 1.4q0.9 1.1 0.9 2.8q0 2.4-1.9 3.8q-2 1.4-5.5 1.4z" />
		<g id="&lt;Group&gt;">
			<path id="&lt;Path&gt;" class="s1" d="m293.7 124.7h-6.7l-9.9-26.5l-7.4-23.5l-7.9 23.5l-10.1 26.3h-6.8l-21.7-60.6l6.7 0.1l18.4 53.5l19.2-53.4h4.4l18.5 53.6l18.8-53.4h6.7z" />
			<path id="&lt;Compound Path&gt;" fill-rule="evenodd" class="s1" d="m322.9 94.7c0.1-19.2 14.2-31.4 31.6-31.3c17.4 0.1 31.4 12.4 31.3 31.6c-0.1 19.2-14.2 30.9-31.6 30.8c-17.4 0-31.3-11.9-31.3-31.1zm56.9 0.3c0.1-15.7-11.3-25.9-25.3-25.9c-14-0.1-25.5 10-25.5 25.7c-0.1 15.6 11.2 25.1 25.2 25.2c14.1 0 25.5-9.4 25.6-25z" />
			<path id="&lt;Compound Path&gt;" fill-rule="evenodd" class="s1" d="m397.1 95.1c0.1-19.2 14.1-31.4 31.5-31.3c17.5 0 31.4 12.3 31.3 31.5c-0.1 19.3-14.1 31-31.6 30.9c-17.4-0.1-31.3-11.9-31.2-31.1zm56.8 0.2c0.1-15.6-11.3-25.8-25.3-25.9c-14-0.1-25.4 10-25.5 25.7c-0.1 15.7 11.3 25.1 25.3 25.2c14 0.1 25.4-9.3 25.5-25z" />
			<path id="&lt;Compound Path&gt;" fill-rule="evenodd" class="s1" d="m533.7 40.1l-0.4 85.7h-6v-13.4c-5.1 9.2-15.3 14.3-25.8 14.2c-17.3 0-30.9-11.3-30.8-31.3c0.1-20 13.9-31.2 31.2-31.1c10.6 0.1 20.6 4.5 25.6 14.3l0.2-38.4zm-57 55.2c-0.1 16.7 11.3 25.4 25.2 25.4c14.5 0.1 25.3-10.3 25.4-25.3c0.1-15.1-10.9-25.4-25.2-25.5c-13.9 0-25.3 8.4-25.4 25.4z" />
			<path id="&lt;Compound Path&gt;" fill-rule="evenodd" class="s1" d="m549 95.6c0.1-18.1 14.1-31.1 31.5-31c17.4 0.1 32.9 10.5 30.4 34.1l-55.7-0.2c1.2 14.2 12.3 22.4 25.1 22.5c8.1 0 17.6-3.1 22.3-9.1l4.4 3.5c-6.1 7.6-16.9 11.5-26.8 11.5c-17.4-0.1-31.3-12-31.2-31.3zm56.4-2.2c0-14.9-10-23.2-24.9-23.3c-12.8-0.1-23.8 8.3-25.3 23.1z" />
			<path id="&lt;Compound Path&gt;" fill-rule="evenodd" class="s1" d="m623.4 96c0-18.1 14.1-31.2 31.5-31.1c17.4 0.1 32.9 10.6 30.4 34.2l-55.7-0.3c1.2 14.2 12.3 22.5 25.1 22.5c8.1 0.1 17.6-3.1 22.3-9l4.4 3.4c-6.1 7.7-16.9 11.5-26.8 11.5c-17.4-0.1-31.3-12-31.2-31.2zm56.4-2.2c0-14.9-10-23.3-24.9-23.4c-12.8 0-23.8 8.4-25.3 23.2z" />
			<path id="&lt;Path&gt;" class="s1" d="m721.8 90.9l18.5-24.6h7.4v0.3l-22.3 28.7l23.8 31.2v0.3h-7.3l-20.1-27.2l-20.5 27l-7.2-0.1v-0.2l24-31l-22-29v-0.2h7.4z" />
			<path id="&lt;Path&gt;" class="s1" d="m223.3 158.6h1.8l5.5 14.4l6.2-15.1h0.2l6.4 15l5.5-14.3h1.6l-7 18.1h-0.3l-6.2-15l-6.4 15h-0.2z" />
			<path id="&lt;Compound Path&gt;" fill-rule="evenodd" class="s1" d="m252.9 167.3c0-5.1 4.1-9.1 9.2-9.1c5.1 0 9.2 4 9.2 9.1c0 5.2-4.1 9.2-9.2 9.2c-5.1 0-9.2-4-9.2-9.2zm16.7 0c0-4.4-3.2-7.7-7.5-7.7c-4.3 0-7.5 3.3-7.5 7.7c0 4.4 3.2 7.8 7.5 7.8c4.3 0 7.5-3.4 7.5-7.8z" />
			<path id="&lt;Path&gt;" class="s1" d="m276.7 158.6h1.6v3.1c1.2-2.2 3.1-3.5 5.4-3.5c1.2 0 1.8 0.1 2.7 0.6l-0.6 1.3c-0.6-0.3-1.2-0.4-2.2-0.4c-2.9 0-5.3 2.7-5.3 6.3v10.1h-1.6z" />
			<path id="&lt;Path&gt;" class="s1" d="m290.8 147.5h1.7v28.6h-1.7z" />
			<path id="&lt;Compound Path&gt;" fill-rule="evenodd" class="s1" d="m298 167.3c0-5.1 3.9-9.1 9.1-9.1c3.2 0 5.8 1.4 7.3 4.2v-14.9h1.7v28.6h-1.7v-3.8c-1.5 2.7-4.1 4.2-7.3 4.2c-5.2 0-9.1-4-9.1-9.2zm16.6 0c0-4.4-3.1-7.7-7.5-7.7c-4.3 0-7.4 3.3-7.4 7.7c0 4.5 3.1 7.7 7.4 7.7c4.4 0 7.5-3.2 7.5-7.7z" />
			<path id="&lt;Path&gt;" class="s1" d="m320.5 158.6h1.8l5.5 14.4l6.2-15.1h0.2l6.4 15l5.5-14.3h1.6l-7 18.1h-0.3l-6.2-15l-6.4 15h-0.2z" />
			<path id="&lt;Compound Path&gt;" class="s1" d="m351.7 149.4c0-0.7 0.6-1.3 1.4-1.3c0.7 0 1.4 0.6 1.4 1.3c0 0.8-0.7 1.4-1.4 1.4c-0.8 0-1.4-0.6-1.4-1.4zm0.5 9.2h1.7v17.5h-1.7z" />
			<path id="&lt;Compound Path&gt;" fill-rule="evenodd" class="s1" d="m359.4 167.3c0-5.1 3.9-9.1 9.2-9.1c3.2 0 5.8 1.4 7.3 4.2v-14.9h1.7v28.6h-1.7v-3.8c-1.5 2.7-4.1 4.2-7.3 4.2c-5.3 0-9.2-4-9.2-9.2zm16.6 0c0-4.4-3-7.7-7.4-7.7c-4.4 0-7.4 3.3-7.4 7.7c0 4.5 3 7.7 7.4 7.7c4.4 0 7.4-3.2 7.4-7.7z" />
			<path id="&lt;Compound Path&gt;" fill-rule="evenodd" class="s1" d="m392.3 175.1c3.2 0 5-1.1 6.4-2.8l1.1 1c-1.6 2-4.1 3.2-7.5 3.2c-5.5 0-9.4-4-9.4-9.2c0-5.1 4.1-9.1 9-9.1c5.3 0 8.7 3.9 8.8 9.5h-16c0.2 4.6 3.4 7.4 7.6 7.4zm6.7-8.9c-0.4-3.7-2.6-6.6-7.1-6.6c-3.9 0-6.7 2.8-7.2 6.6z" />
			<path id="&lt;Compound Path&gt;" fill-rule="evenodd" class="s1" d="m414.8 167.3c0-5.1 3.9-9.1 9.2-9.1c3.2 0 5.8 1.4 7.3 4.2v-14.9h1.7v28.6h-1.7v-3.8c-1.5 2.7-4.1 4.2-7.3 4.2c-5.3 0-9.2-4-9.2-9.2zm16.6 0c0-4.4-3-7.7-7.4-7.7c-4.4 0-7.4 3.3-7.4 7.7c0 4.5 3 7.7 7.4 7.7c4.4 0 7.4-3.2 7.4-7.7z" />
			<path id="&lt;Compound Path&gt;" class="s1" d="m439.5 149.4c0-0.7 0.7-1.3 1.4-1.3c0.7 0 1.4 0.6 1.4 1.3c0 0.8-0.7 1.4-1.4 1.4c-0.7 0-1.4-0.6-1.4-1.4zm0.5 9.2h1.7v17.5h-1.7z" />
			<path id="&lt;Compound Path&gt;" fill-rule="evenodd" class="s1" d="m447.2 167.3c0-5.1 3.8-9.1 9-9.1c3.2 0 5.6 1.4 7.1 4.2v-3.8h1.7v17.5h-1.7v-3.8c-1.5 2.7-3.9 4.2-7.1 4.2c-5.2 0-9-4-9-9.2zm16.2 0c0-4.4-2.9-7.7-7.2-7.7c-4.2 0-7.2 3.3-7.2 7.7c0 4.5 3 7.7 7.2 7.7c4.3 0 7.2-3.2 7.2-7.7z" />
			<path id="&lt;Path&gt;" class="s1" d="m471.8 158.6h1.7v2.7c0.9-1.9 3-3.1 5.6-3.1c2.4 0 4.6 1.1 5.8 3.5c1.3-2.3 3.3-3.5 6.1-3.5c3.5 0 6.3 2.2 6.3 6.3v11.6h-1.7v-11.4c0-3.4-1.8-5.1-4.6-5.1c-3.4 0-5.6 2.1-5.6 5.7v10.8h-1.7v-11.3c0-3.4-1.7-5.2-4.6-5.2c-3.4 0-5.6 2.1-5.6 5.9v10.6h-1.7z" />
			<path id="&lt;Compound Path&gt;" fill-rule="evenodd" class="s1" d="m502.4 167.3c0-5.1 4.1-9.1 9.2-9.1c5.1 0 9.2 4 9.2 9.1c0 5.2-4.1 9.2-9.2 9.2c-5.1 0-9.2-4-9.2-9.2zm16.7 0c0-4.4-3.2-7.7-7.5-7.7c-4.3 0-7.5 3.3-7.5 7.7c0 4.4 3.2 7.8 7.5 7.8c4.3 0 7.5-3.4 7.5-7.8z" />
			<path id="&lt;Path&gt;" class="s1" d="m526.1 158.6h1.7v3.3c1.2-2.3 3.7-3.7 6.6-3.7c3.9 0 7 2.2 7 7v10.9h-1.7v-10.6c0-4.1-1.9-5.9-5.3-5.9c-3.8 0-6.6 2.5-6.6 6.5v10h-1.7z" />
			<path id="&lt;Compound Path&gt;" fill-rule="evenodd" class="s1" d="m546.5 167.3c0-5.1 3.8-9.1 9.1-9.1c3.2 0 5.8 1.4 7.3 4.2v-14.9h1.7v28.6h-1.7v-3.8c-1.5 2.7-4.1 4.2-7.3 4.2c-5.3 0-9.1-4-9.1-9.2zm16.5 0c0-4.4-3-7.7-7.4-7.7c-4.4 0-7.4 3.3-7.4 7.7c0 4.5 3 7.7 7.4 7.7c4.4 0 7.4-3.2 7.4-7.7z" />
			<path id="&lt;Compound Path&gt;" fill-rule="evenodd" class="s1" d="m589.6 175.1c3.2 0 5-1.1 6.4-2.8l1.1 1c-1.6 2-4.1 3.2-7.5 3.2c-5.5 0-9.4-4-9.4-9.2c0-5.1 4-9.1 9-9.1c5.3 0 8.7 3.9 8.8 9.5h-16.1c0.2 4.6 3.5 7.4 7.7 7.4zm6.7-8.9c-0.5-3.7-2.7-6.6-7.1-6.6c-3.9 0-6.8 2.8-7.2 6.6z" />
			<path id="&lt;Path&gt;" class="s1" d="m601.7 158.6h2l4.9 6.7l5-6.7h1.9l-5.9 8l7 9.5h-2l-6-8.3l-6.2 8.3h-1.8l7-9.5q0 0-5.9-8z" />
			<path id="&lt;Path&gt;" class="s1" d="m619.1 167.3c0-5.1 3.9-9.1 9.1-9.1c2.7 0 4.9 0.8 6.6 2.6l-1.1 1c-1.4-1.5-3.2-2.2-5.5-2.2c-4.4 0-7.3 3.3-7.3 7.7c0 4.4 2.9 7.8 7.2 7.8c2.6 0 4.8-1 6.1-2.6l1.2 1c-1.7 2-4.3 3-7.3 3c-5.1 0-9-4-9-9.2z" />
			<path id="&lt;Path&gt;" class="s1" d="m640.2 147.5h1.7v14.4c1.5-2.4 3.7-3.7 6.6-3.7c3.9 0 7 2.2 7 7v10.9h-1.7v-10.6c0-4.1-1.9-5.9-5.3-5.9c-3.9 0-6.6 2.5-6.6 6.5v10h-1.7z" />
			<path id="&lt;Compound Path&gt;" fill-rule="evenodd" class="s1" d="m660.6 167.3c0-5.1 3.7-9.1 8.9-9.1c3.2 0 5.6 1.4 7.1 4.2v-3.8h1.7v17.5h-1.7v-3.8c-1.5 2.7-3.9 4.2-7.1 4.2c-5.2 0-8.9-4-8.9-9.2zm16.1 0c0-4.4-2.9-7.7-7.2-7.7c-4.2 0-7.2 3.3-7.2 7.7c0 4.5 3 7.7 7.2 7.7c4.3 0 7.2-3.2 7.2-7.7z" />
			<path id="&lt;Path&gt;" class="s1" d="m685.1 158.6h1.7v3.3c1.2-2.3 3.7-3.7 6.7-3.7c3.8 0 6.9 2.2 6.9 7v10.9h-1.7v-10.6c0-4.1-1.9-5.9-5.3-5.9c-3.8 0-6.6 2.5-6.6 6.5v10h-1.7z" />
			<path id="&lt;Compound Path&gt;" fill-rule="evenodd" class="s1" d="m706.3 183l1.5-0.5c1.2 2.7 4 4.2 7.3 4.2c4.2 0 6.8-2.8 6.8-7.3v-7.1c-1.5 2.7-4.1 4.2-7.3 4.2c-5.2 0-9.1-4-9.1-9.2c0-5.1 3.9-9.1 9.1-9.1c3.2 0 5.8 1.4 7.3 4.2v-3.8h1.7v20.9c0 5.3-3.3 8.7-8.5 8.7c-4.3 0-7.5-2.1-8.8-5.2zm15.7-15.7c0-4.4-3-7.7-7.4-7.7c-4.4 0-7.4 3.3-7.4 7.7c0 4.5 3 7.7 7.4 7.7c4.4 0 7.4-3.2 7.4-7.7z" />
			<path id="&lt;Compound Path&gt;" fill-rule="evenodd" class="s1" d="m738.3 175.1c3.2 0 5-1.1 6.4-2.8l1.2 1c-1.7 2-4.1 3.2-7.6 3.2c-5.5 0-9.4-4-9.4-9.2c0-5.1 4.1-9.1 9-9.1c5.3 0 8.7 3.9 8.9 9.5h-16.1c0.2 4.6 3.4 7.4 7.6 7.4zm6.7-8.9c-0.4-3.7-2.6-6.6-7.1-6.6c-3.9 0-6.7 2.8-7.2 6.6z" />
		</g>
		<path id="&lt;Compound Path&gt;" fill-rule="evenodd" class="s2" d="m192.2 166.8l-49.3 27.8c-3.6 2-8.3 3.1-13.3 3.1c-4.9 0-9.6-1.1-13.2-3.1l-49.3-27.8c-7.4-4.2-13.2-14.1-13.2-22.4v-55.7c0-8.3 5.8-18.2 13.2-22.4l49.3-27.8c3.6-2 8.3-3.1 13.2-3.1c5 0 9.7 1.1 13.3 3.1l49.3 27.8c7.4 4.2 13.2 14.1 13.2 22.4v55.7c0 8.3-5.8 18.2-13.2 22.4zm-2.4-4c6-3.3 10.9-11.8 10.9-18.4v-55.7c0-6.6-4.9-15.1-10.9-18.4l-49.3-27.9c-2.8-1.6-6.8-2.5-10.9-2.5c-4.1 0-8.1 0.9-10.9 2.5l-49.3 27.9c-5.9 3.3-10.9 11.8-10.9 18.4v55.7c0 6.6 5 15.1 10.9 18.4l49.3 27.9c2.8 1.5 6.8 2.5 10.9 2.5c4.1 0 8.1-1 10.9-2.5z" />
		<path id="&lt;Compound Path&gt;" fill-rule="evenodd" class="s2" d="m178.5 133.7l-38.9 60.2l-2.3-1.4l39.1-60.6l0.2-0.4l-2-2.5l-52.6 24.8l-0.5 0.3l9.3 39.4l-2.7 0.6l-9.1-38.8l-37.5 17.6l-1.1-2.4l37.7-17.8l0.3-0.1l-2.4-10.1l-15.7-17.9l-38 31.7l-1.8-2.1l38-31.6l-38.2-43.1l2.1-1.7l15.2 17.1l0.5 0.6l50-56.5l2.1 1.8l-12.5 14.1l-0.4 0.4l42.4 51.5l37.2-29.3l1.7 2.1l-37.1 29.3l37.4 45.4l-2.1 1.7zm-63.8 3l-14.5-62l-20.2 22.8zm58.1-9.8l-57.3-69.5l-13.1 14.8l18.3 78.3l0.2 0.9l51.2-24.2z" />
	</g>
</svg>