<svg width="24" height="23" viewBox="0 0 24 23" fill="none" xmlns="http://www.w3.org/2000/svg">
<path d="M17.3414 0.0476074C15.7156 0.0476074 14.1735 0.672659 13.0263 1.79331L11.5981 3.18396C10.4471 4.30462 9.80519 5.80252 9.80519 7.38549C9.80519 8.1363 9.95333 8.8686 10.2306 9.54544L11.8108 8.00685C11.6133 6.77893 11.9969 5.45856 12.9655 4.51543L14.3938 3.12479C15.1763 2.36289 16.236 1.94126 17.3414 1.94126C18.4468 1.94126 19.4762 2.36289 20.2586 3.12479C21.873 4.69666 21.873 7.26344 20.2586 8.83532L18.8304 10.226C18.0479 10.9879 16.9881 11.4095 15.8828 11.4095C15.6663 11.4095 15.4535 11.3873 15.2446 11.3503L13.6645 12.8889C14.3596 13.1589 15.1117 13.3031 15.8828 13.3031C17.5085 13.3031 19.0507 12.6781 20.1979 11.5574L21.6261 10.1668C22.777 9.04613 23.419 7.54823 23.419 5.96526C23.419 4.38229 22.777 2.91397 21.6261 1.79331C20.479 0.672659 18.9672 0.0476074 17.3414 0.0476074ZM14.9408 6.94167L7.16144 14.5163L8.55929 15.8773L16.3386 8.30273L14.9408 6.94167ZM7.61726 9.51585C5.99151 9.51585 4.44932 10.1409 3.30218 11.2616L1.87394 12.6522C0.723 13.7729 0.0810547 15.2708 0.0810547 16.8537C0.0810547 18.4367 0.723 19.905 1.87394 21.0257C3.02109 22.1463 4.53289 22.7714 6.15864 22.7714C7.7844 22.7714 9.32658 22.1463 10.4737 21.0257L11.902 19.635C13.0529 18.5144 13.6948 17.0165 13.6948 15.4335C13.6948 14.6827 13.5467 13.9504 13.2694 13.2736L11.6892 14.8121C11.8868 16.0401 11.5031 17.3604 10.5345 18.3036L9.10627 19.6942C8.32378 20.4561 7.264 20.8777 6.15864 20.8777C5.05328 20.8777 4.02389 20.4561 3.2414 19.6942C1.62704 18.1223 1.62704 15.5555 3.2414 13.9837L4.66963 12.593C5.45212 11.8311 6.5119 11.4095 7.61726 11.4095C7.83378 11.4095 8.04649 11.4317 8.25541 11.4687L9.83558 9.93008C9.14046 9.66009 8.38836 9.51585 7.61726 9.51585Z" fill="#445A64"/>
</svg>
