<svg width="25" height="25" viewBox="0 0 25 25" fill="none" xmlns="http://www.w3.org/2000/svg">
<path d="M12.4905 0.102417C5.6919 0.102417 0.18335 5.61097 0.18335 12.4095C0.18335 17.6256 3.42839 22.0765 8.0075 23.8713C7.89933 22.8978 7.79918 21.4035 8.04756 20.3378C8.27191 19.3804 9.4898 14.2203 9.4898 14.2203C9.4898 14.2203 9.12524 13.4832 9.12524 12.3935C9.12524 10.6828 10.1148 9.40486 11.3487 9.40486C12.3983 9.40486 12.9071 10.1941 12.9071 11.1396C12.9071 12.1972 12.2341 13.7757 11.8855 15.2379C11.5971 16.4638 12.5025 17.4614 13.7084 17.4614C15.8958 17.4614 17.5784 15.1538 17.5784 11.8246C17.5784 8.88005 15.4631 6.82085 12.4384 6.82085C8.93694 6.82085 6.88175 9.44493 6.88175 12.1611C6.88175 13.2188 7.29039 14.3525 7.79918 14.9695C7.89933 15.0897 7.91135 15.1979 7.88331 15.3221C7.78716 15.7107 7.58284 16.548 7.54278 16.7162C7.48669 16.9446 7.3625 16.9926 7.13014 16.8805C5.59175 16.1674 4.63026 13.9199 4.63026 12.1131C4.63026 8.23104 7.45064 4.6655 12.7629 4.6655C17.0335 4.6655 20.3507 7.70623 20.3507 11.7765C20.3507 16.0151 17.6745 19.4284 13.9648 19.4284C12.7188 19.4284 11.545 18.7834 11.1444 18.0182C11.1444 18.0182 10.5274 20.3659 10.3752 20.9428C10.0987 22.0124 9.34958 23.3505 8.8448 24.1678C9.99859 24.5243 11.2205 24.7166 12.4905 24.7166C19.289 24.7166 24.7976 19.2081 24.7976 12.4095C24.7976 5.61097 19.289 0.102417 12.4905 0.102417Z" fill="#445A64"/>
</svg>
