<svg width="25" height="25" viewBox="0 0 25 25" fill="none" xmlns="http://www.w3.org/2000/svg">
<path fill-rule="evenodd" clip-rule="evenodd" d="M20.9263 3.7323C18.6685 1.47449 15.6685 0.228394 12.4731 0.228394C5.88721 0.228394 0.523926 5.58777 0.523926 12.1737C0.520019 14.2792 1.0708 16.3339 2.11768 18.1464L0.422363 24.3378L6.7583 22.6737C8.50049 23.6268 10.4692 24.1268 12.4692 24.1307H12.4731C19.0591 24.1307 24.4185 18.7714 24.4224 12.1815C24.4224 8.99011 23.1802 5.99011 20.9263 3.7323ZM12.4731 22.1112H12.4692C10.688 22.1112 8.93799 21.6307 7.41455 20.7284L7.05127 20.5135L3.28955 21.4979L4.29346 17.8339L4.05908 17.4589C3.06299 15.8768 2.53955 14.0487 2.53955 12.1737C2.53955 6.70105 6.99658 2.24792 12.4771 2.24792C15.1294 2.24792 17.6216 3.28308 19.4966 5.15808C21.3716 7.03699 22.4028 9.52917 22.4028 12.1815C22.4028 17.6581 17.9458 22.1112 12.4731 22.1112ZM17.9185 14.6737C17.6216 14.5253 16.1528 13.8026 15.8794 13.705C15.606 13.6034 15.4067 13.5565 15.2075 13.8534C15.0083 14.1542 14.438 14.826 14.2622 15.0253C14.0903 15.2206 13.9146 15.2479 13.6177 15.0995C13.3169 14.951 12.356 14.6346 11.2153 13.6151C10.3286 12.826 9.72705 11.8456 9.55518 11.5487C9.37939 11.2479 9.53564 11.0878 9.68408 10.9393C9.8208 10.8065 9.98486 10.5917 10.1333 10.4159C10.2817 10.244 10.3325 10.119 10.4341 9.9198C10.5317 9.72058 10.481 9.5448 10.4067 9.39636C10.3325 9.24792 9.73486 7.77527 9.48486 7.17761C9.24268 6.59558 8.99658 6.67761 8.81299 6.66589C8.64111 6.65808 8.44189 6.65808 8.24268 6.65808C8.04346 6.65808 7.71924 6.7323 7.4458 7.03308C7.17236 7.32996 6.40283 8.05261 6.40283 9.52136C6.40283 10.9901 7.47314 12.412 7.62158 12.6112C7.77002 12.8065 9.72705 15.8221 12.7231 17.1151C13.4341 17.4237 13.9888 17.6073 14.4224 17.744C15.1372 17.9706 15.7896 17.9393 16.3052 17.8651C16.8794 17.7792 18.0708 17.1425 18.3208 16.4432C18.5669 15.7479 18.5669 15.1503 18.4927 15.0253C18.4185 14.9003 18.2192 14.826 17.9185 14.6737Z" fill="#445A64"/>
</svg>
